<svg xmlns="http://www.w3.org/2000/svg" viewBox="0 0 96 96" width="96" height="96" role="img" aria-labelledby="title">
  <title id="title">Help</title>
  <defs>
    <filter id="glow" x="-30%" y="-30%" width="160%" height="160%">
      <feGaussianBlur stdDeviation="2.6" result="blur"/>
      <feMerge>
        <feMergeNode in="blur"/>
        <feMergeNode in="SourceGraphic"/>
      </feMerge>
    </filter>
  </defs>
  <polygon points="48,5 84,26 84,70 48,91 12,70 12,26" fill="#081122" fill-opacity="0.62" stroke="#39c8ff" stroke-width="3" filter="url(#glow)"/>
  <polygon points="48,13 76,29 76,67 48,83 20,67 20,29" fill="none" stroke="#39c8ff" stroke-width="1.2" opacity="0.34"/>
  <circle cx="48" cy="48" r="30" fill="#39c8ff" opacity="0.06"/>
  <path d="M39 38c0-5.8 4.5-10 10.3-10 6 0 10.7 4.2 10.7 10.2 0 4.2-2.1 6.7-5.7 9.2-3.1 2.2-4.3 3.7-4.3 6.6v2.2h-7v-3c0-4.5 1.8-7 5.4-9.6 3.1-2.2 4.2-3.6 4.2-5.7 0-2.4-1.7-4.1-4.2-4.1-2.6 0-4.4 1.8-4.5 4.3H39Z" fill="#ffffff"/>
  <circle cx="46.6" cy="66.8" r="4.2" fill="#ffffff"/>
</svg>
