<svg xmlns="http://www.w3.org/2000/svg" viewBox="0 0 64 64" width="64" height="64">
  <title>Trident</title>
  <rect width="64" height="64" rx="13" fill="#1a1f2b"/>
  <rect x="0.75" y="0.75" width="62.5" height="62.5" rx="12.25" fill="none" stroke="#22AAFF" stroke-width="1.5" stroke-opacity="0.7"/>
  <path d="M34.06 53.00 L29.99 52.94 L29.88 41.14 L26.40 40.85 L23.56 39.79 L21.38 37.84 L19.97 35.48 L19.49 32.29 L20.67 27.58 L20.79 24.86 L20.08 22.27 L18.31 19.44 L18.73 19.26 L21.09 20.79 L22.68 22.50 L23.51 24.04 L23.98 25.92 L23.51 32.53 L24.33 34.42 L25.57 35.66 L26.99 36.37 L29.70 36.48 L29.99 21.09 L29.58 20.79 L26.87 22.68 L26.57 22.50 L28.11 17.90 L32.06 11.00 L36.37 18.37 L37.66 22.50 L37.49 22.68 L34.77 20.79 L34.36 20.85 L34.54 36.37 L37.49 36.25 L39.02 35.42 L40.02 34.30 L40.85 31.59 L40.26 27.93 L40.49 24.74 L42.38 21.56 L45.69 19.32 L44.39 21.68 L43.56 24.27 L43.56 27.22 L44.74 31.71 L44.74 33.83 L44.27 35.60 L42.62 38.19 L40.55 39.90 L37.72 40.85 L34.36 41.03 L34.36 52.23 Z" fill="#22AAFF" opacity="0.95"/>
</svg>
