<svg xmlns="http://www.w3.org/2000/svg" style="display:none">
  <symbol id="iq-icon-home" viewBox="0 0 24 24">
    <path d="M3 10.5 12 3l9 7.5V21a1 1 0 0 1-1 1h-5v-7H9v7H4a1 1 0 0 1-1-1z" fill="currentColor"/>
  </symbol>
  <symbol id="iq-icon-zone" viewBox="0 0 24 24">
    <circle cx="12" cy="12" r="9" fill="none" stroke="currentColor" stroke-width="2"/>
    <circle cx="12" cy="12" r="3" fill="currentColor"/>
  </symbol>
  <symbol id="iq-icon-capacity" viewBox="0 0 24 24">
    <circle cx="12" cy="12" r="9" fill="none" stroke="currentColor" stroke-width="2"/>
    <circle cx="12" cy="3" r="2" fill="currentColor"/>
    <circle cx="21" cy="12" r="2" fill="currentColor"/>
    <circle cx="12" cy="21" r="2" fill="currentColor"/>
    <circle cx="3" cy="12" r="2" fill="currentColor"/>
  </symbol>
  <symbol id="iq-icon-tracker" viewBox="0 0 24 24">
    <path d="M4 20V4h16v16z" fill="none" stroke="currentColor" stroke-width="2"/>
    <path d="M7 15h2v3H7zm4-5h2v8h-2zm4-3h2v11h-2z" fill="currentColor"/>
  </symbol>
</svg>

