<svg xmlns="http://www.w3.org/2000/svg" viewBox="0 0 1200 720" role="img" aria-labelledby="title desc">
  <title id="title">Hub Location 1-back Match</title>
  <desc id="desc">Two displays showing a LOCATION 1-back match in hub categorical mode.</desc>
  <defs>
    <style>
      .bg { fill: #f3f7fc; }
      .panel { fill: #ffffff; stroke: #d8e2f0; stroke-width: 2; }
      .title { font: 700 34px 'Segoe UI', Arial, sans-serif; fill: #10233b; }
      .sub { font: 500 20px 'Segoe UI', Arial, sans-serif; fill: #344861; }
      .card { fill: #f8fbff; stroke: #d6e3f5; stroke-width: 2; rx: 14; }
      .match-card { fill: #daf4e6; stroke: #6ebe8d; stroke-width: 2; rx: 14; }
      .txt { font: 600 20px 'Segoe UI', Arial, sans-serif; fill: #10233b; }
      .small { font: 500 17px 'Segoe UI', Arial, sans-serif; fill: #4b5f78; }
      .ring { fill: none; stroke: #c8d6ea; stroke-width: 12; }
      .dot { fill: #d5e2f4; }
      .chip { fill: #eaf2ff; stroke: #9ebff4; stroke-width: 1.5; rx: 12; }
      .accent { fill: #204a86; font: 700 19px 'Segoe UI', Arial, sans-serif; }
      .arrow { stroke: #6b7f9b; stroke-width: 3; marker-end: url(#m); }
    </style>
    <marker id="m" markerWidth="9" markerHeight="9" refX="7.5" refY="4.5" orient="auto">
      <path d="M0,0 L9,4.5 L0,9 Z" fill="#6b7f9b"/>
    </marker>
  </defs>

  <rect class="bg" x="0" y="0" width="1200" height="720"/>
  <rect class="panel" x="30" y="26" width="1140" height="668" rx="24"/>
  <text class="title" x="66" y="82">LOCATION 1-back Match</text>
  <text class="sub" x="66" y="114">Two displays: press MATCH at t because location matches t-1.</text>

  <rect class="chip" x="66" y="144" width="226" height="42"/>
  <text class="txt" x="88" y="171">Target: LOCATION</text>

  <g transform="translate(110,215)">
    <rect class="card" x="0" y="0" width="440" height="420"/>
    <text class="txt" x="24" y="36">Display 1 (t-1)</text>
    <circle class="ring" cx="220" cy="210" r="140"/>
    <circle class="dot" cx="220" cy="70" r="7"/>
    <circle class="dot" cx="360" cy="210" r="7"/>
    <circle class="dot" cx="220" cy="350" r="7"/>
    <circle class="dot" cx="80" cy="210" r="7"/>
    <circle cx="360" cy="210" r="40" fill="#dc2626"/>
    <text x="360" y="220" text-anchor="middle" font-size="36" font-family="Segoe UI, Arial, sans-serif" font-weight="700" fill="#ffffff">B</text>
    <text class="small" x="24" y="384">Location = Right marker</text>
  </g>

  <g transform="translate(650,215)">
    <rect class="match-card" x="0" y="0" width="440" height="420"/>
    <text class="txt" x="24" y="36">Display 2 (t)</text>
    <circle class="ring" cx="220" cy="210" r="140"/>
    <circle class="dot" cx="220" cy="70" r="7"/>
    <circle class="dot" cx="360" cy="210" r="7"/>
    <circle class="dot" cx="220" cy="350" r="7"/>
    <circle class="dot" cx="80" cy="210" r="7"/>
    <circle cx="360" cy="210" r="40" fill="#2563eb"/>
    <text x="360" y="220" text-anchor="middle" font-size="36" font-family="Segoe UI, Arial, sans-serif" font-weight="700" fill="#ffffff">D</text>
    <text class="small" x="24" y="384">Location = Right marker (matches t-1)</text>
  </g>

  <line class="arrow" x1="520" y1="650" x2="690" y2="650"/>
  <text class="accent" x="454" y="686">MATCH now: same LOCATION at 1-back</text>
</svg>
