<svg xmlns="http://www.w3.org/2000/svg" viewBox="0 0 1024 1024">
  <rect width="1024" height="1024" rx="230" fill="#0b1118"/>
  <rect x="2" y="2" width="1020" height="1020" rx="228" fill="none" stroke="#6ec6ff" stroke-width="4" stroke-opacity="0.3"/>
  <radialGradient id="glow" cx="30%" cy="30%">
    <stop offset="0%" stop-color="#6ec6ff" stop-opacity="0.15"/>
    <stop offset="100%" stop-color="#0b1118" stop-opacity="0"/>
  </radialGradient>
  <g transform="translate(512, 512)">
    <circle r="320" fill="none" stroke="#1d2230" stroke-width="24"/>
    <circle r="320" fill="none" stroke="#6ec6ff" stroke-width="8" stroke-dasharray="40 60" opacity="0.6"/>
    <path d="M-120,-80 L0,-140 M0,-140 L140,-60 M140,-60 L100,100 M100,100 L-40,120 M-40,120 L-120,-80 M-120,-80 L140,-60 M0,-140 L-40,120"
          stroke="#4ea0e8" stroke-width="12" stroke-linecap="round" opacity="0.7"/>
    <circle cx="-120" cy="-80" r="48" fill="#ccff66" opacity="0.9"/>
    <circle cx="140" cy="-60" r="36" fill="#6ec6ff" opacity="0.9"/>
    <circle cx="-40" cy="120" r="42" fill="#ccff66" opacity="0.8"/>
    <circle cx="100" cy="100" r="32" fill="#6ec6ff" opacity="0.8"/>
    <circle cx="0" cy="-140" r="38" fill="#ccff66" opacity="0.85"/>
    <circle r="64" fill="#0f121a" stroke="#ccff66" stroke-width="8"/>
    <circle r="24" fill="#ccff66"/>
  </g>
  <rect width="1024" height="1024" rx="230" fill="url(#glow)"/>
</svg>
